<svg width="327" height="91" viewBox="0 0 327 91" fill="none" xmlns="http://www.w3.org/2000/svg">
                            <path class="letter" d="M25.7334 87H22.1475V4.52344H25.7334V87ZM18.5615 87H14.9756V4.52344H18.5615V87ZM11.3896 87H7.80371V4.52344H11.3896V87ZM4.21777 87H0.631836V4.52344H4.21777V87ZM51.9307 45.7617L72.998 4.52344H76.9824L55.915 45.7617L76.9824 87H72.998L51.9307 45.7617ZM43.9121 45.7617L64.9795 4.52344H68.9639L47.8965 45.7617L68.9639 87H64.9795L43.9121 45.7617ZM35.8936 45.7617L56.9609 4.52344H60.9453L39.8779 45.7617L60.9453 87H56.9609L35.8936 45.7617ZM27.8252 45.7617L48.9424 4.52344H52.9268L31.8096 45.7617L52.9268 87H48.9424L27.8252 45.7617ZM123.781 4.52344H127.367V87H123.781V4.52344ZM116.609 4.52344H120.195V87H116.609V4.52344ZM109.437 4.52344H113.023V87H109.437V4.52344ZM102.265 4.52344H105.851V87H102.265V4.52344ZM176.705 65.4844V26.0391C176.705 26.0391 184.857 26.0391 201.159 26.0391C205.111 26.0391 208.497 27.9814 211.32 31.8662C214.175 35.7178 215.603 40.3496 215.603 45.7617C215.603 51.207 214.175 55.8555 211.32 59.707C208.497 63.5586 205.111 65.4844 201.159 65.4844H176.705ZM180.291 61.8984H201.159C204.115 61.8984 206.638 60.3213 208.73 57.167C210.855 54.0127 211.917 50.2109 211.917 45.7617C211.917 41.2793 210.855 37.4775 208.73 34.3564C206.638 31.2021 204.115 29.625 201.159 29.625H180.291V61.8984ZM173.119 69.0703H201.159C206.107 69.0703 210.357 66.7959 213.909 62.2471C217.495 57.665 219.288 52.1699 219.288 45.7617C219.288 41.5449 218.458 37.6436 216.798 34.0576C215.171 30.4717 212.963 27.6494 210.174 25.5908C207.418 23.499 204.413 22.4531 201.159 22.4531H173.119V69.0703ZM169.533 72.6562V18.8672H201.159C205.044 18.8672 208.663 20.0625 212.017 22.4531C215.37 24.8438 218.027 28.1143 219.986 32.2646C221.978 36.3818 222.974 40.8809 222.974 45.7617C222.974 50.6094 221.978 55.1084 219.986 59.2588C218.027 63.4092 215.37 66.6797 212.017 69.0703C208.663 71.4609 205.044 72.6562 201.159 72.6562H169.533ZM165.948 76.2422H201.159C205.708 76.2422 209.925 74.8809 213.81 72.1582C217.728 69.4355 220.849 65.7334 223.173 61.0518C225.497 56.3701 226.659 51.2734 226.659 45.7617C226.659 40.2832 225.497 35.2031 223.173 30.5215C220.849 25.8066 217.728 22.0879 213.81 19.3652C209.892 16.6426 205.675 15.2812 201.159 15.2812H165.948V76.2422ZM162.362 79.8281V11.6953H201.159C206.339 11.6953 211.17 13.2227 215.653 16.2773C220.135 19.2988 223.704 23.4326 226.361 28.6787C229.017 33.9248 230.345 39.6191 230.345 45.7617C230.345 51.9043 229.017 57.5986 226.361 62.8447C223.704 68.0908 220.135 72.2412 215.653 75.2959C211.17 78.3174 206.339 79.8281 201.159 79.8281H162.362ZM158.776 83.4141H201.159C205.509 83.4141 209.709 82.418 213.76 80.4258C217.811 78.4336 221.314 75.7607 224.269 72.4072C227.224 69.0537 229.581 65.0527 231.341 60.4043C233.134 55.7227 234.031 50.8418 234.031 45.7617C234.031 40.6816 233.134 35.8174 231.341 31.1689C229.581 26.5205 227.224 22.5195 224.269 19.166C221.314 15.7793 217.811 13.0898 213.76 11.0977C209.709 9.10547 205.509 8.10938 201.159 8.10938H158.776V83.4141ZM201.159 87H155.19V4.52344H201.159C207.634 4.52344 213.677 6.36621 219.288 10.0518C224.9 13.7373 229.366 18.751 232.686 25.0928C236.039 31.4346 237.716 38.3242 237.716 45.7617C237.716 51.3398 236.72 56.6855 234.728 61.7988C232.769 66.8789 230.146 71.2617 226.859 74.9473C223.572 78.6328 219.67 81.5713 215.155 83.7627C210.672 85.9209 206.007 87 201.159 87ZM297.314 36.7969H291.288C288.731 36.7969 286.889 36.1494 285.76 34.8545C284.631 33.5264 284.066 31.7832 284.066 29.625C284.066 24.8438 287.636 22.4531 294.774 22.4531C301.481 22.4531 306.528 23.4492 309.915 25.4414L307.026 27.6328C304.702 26.5703 300.618 26.0391 294.774 26.0391C291.919 26.0391 289.993 26.3545 288.997 26.9854C288.034 27.6162 287.553 28.4961 287.553 29.625C287.553 30.7539 287.818 31.6338 288.35 32.2646C288.881 32.8955 289.86 33.2109 291.288 33.2109H297.464C301.946 33.2109 305.98 33.9746 309.566 35.502C313.185 37.0293 316.157 39.1211 318.481 41.7773C320.806 44.4004 322.582 47.4385 323.81 50.8916C325.039 54.3115 325.653 57.9805 325.653 61.8984C325.653 65.0859 325.205 68.1074 324.309 70.9629C323.412 73.8184 322.051 76.4414 320.225 78.832C318.432 81.2227 316.257 83.2979 313.7 85.0576C311.177 86.7842 308.155 88.1289 304.636 89.0918C301.149 90.0879 297.364 90.5859 293.28 90.5859C286.872 90.5859 280.862 89.6064 275.251 87.6475C269.673 85.7217 265.024 83.0156 261.306 79.5293L264.194 77.3877C267.581 80.4424 271.814 82.8164 276.894 84.5098C282.008 86.1699 287.47 87 293.28 87C297.829 87 301.93 86.3525 305.582 85.0576C309.268 83.7295 312.289 81.9199 314.646 79.6289C317.037 77.3379 318.863 74.6816 320.125 71.6602C321.42 68.6387 322.067 65.3848 322.067 61.8984C322.067 57.2832 321.138 53.1162 319.278 49.3975C317.419 45.6455 314.58 42.6074 310.762 40.2832C306.977 37.959 302.494 36.7969 297.314 36.7969ZM291.288 40.3828H296.966C303.706 40.3828 308.969 42.4414 312.754 46.5586C316.572 50.6758 318.481 55.7891 318.481 61.8984C318.481 68.1074 316.273 73.2539 311.857 77.3379C307.441 81.3887 301.249 83.4141 293.28 83.4141C287.968 83.4141 283.004 82.6836 278.389 81.2227C273.773 79.7617 269.938 77.7031 266.884 75.0469L269.673 72.8057C272.395 75.0303 275.815 76.7568 279.933 77.9854C284.083 79.2139 288.532 79.8281 293.28 79.8281C300.286 79.8281 305.632 78.1514 309.317 74.7979C313.036 71.4443 314.895 67.1445 314.895 61.8984C314.895 56.7188 313.335 52.4355 310.214 49.0488C307.126 45.6621 302.693 43.9688 296.916 43.9688H291.288C286.44 43.9688 282.805 42.6406 280.381 39.9844C277.957 37.3281 276.745 33.875 276.745 29.625C276.745 25.375 278.239 21.9219 281.227 19.2656C284.249 16.6094 288.765 15.2812 294.774 15.2812C298.991 15.2812 302.909 15.7793 306.528 16.7754C310.147 17.7383 313.136 19.1328 315.493 20.959L312.654 23.1504C308.504 20.2949 302.544 18.8672 294.774 18.8672C289.761 18.8672 286.092 19.8633 283.768 21.8555C281.477 23.8145 280.331 26.4043 280.331 29.625C280.331 32.8789 281.178 35.4854 282.871 37.4443C284.598 39.4033 287.403 40.3828 291.288 40.3828ZM291.288 47.5547H296.767C301.614 47.5547 305.25 48.8994 307.674 51.5889C310.098 54.2783 311.31 57.7148 311.31 61.8984C311.31 66.1484 309.799 69.6016 306.777 72.2578C303.789 74.9141 299.29 76.2422 293.28 76.2422C289.063 76.2422 285.129 75.7607 281.477 74.7979C277.857 73.8018 274.869 72.3906 272.512 70.5645L275.351 68.373C279.501 71.2285 285.477 72.6562 293.28 72.6562C298.294 72.6562 301.946 71.6768 304.237 69.7178C306.561 67.7256 307.724 65.1191 307.724 61.8984C307.724 58.6777 306.86 56.0879 305.134 54.1289C303.407 52.1367 300.602 51.1406 296.717 51.1406H291.288C284.481 51.1406 279.152 49.1152 275.301 45.0645C271.482 40.9805 269.573 35.834 269.573 29.625C269.573 23.416 271.781 18.2861 276.197 14.2354C280.613 10.1514 286.806 8.10938 294.774 8.10938C300.087 8.10938 305.034 8.83984 309.616 10.3008C314.231 11.7617 318.066 13.8203 321.121 16.4766L318.332 18.7178C315.609 16.4932 312.189 14.7666 308.072 13.5381C303.955 12.3096 299.522 11.6953 294.774 11.6953C287.768 11.6953 282.406 13.3721 278.687 16.7256C275.002 20.0791 273.159 24.3789 273.159 29.625C273.159 34.8379 274.72 39.1377 277.841 42.5244C280.962 45.8779 285.444 47.5547 291.288 47.5547ZM291.288 54.7266H296.767C299.323 54.7266 301.166 55.3906 302.295 56.7188C303.424 58.0469 303.988 59.7734 303.988 61.8984C303.988 66.6797 300.419 69.0703 293.28 69.0703C286.54 69.0703 281.477 68.0742 278.09 66.082L280.978 63.8906C283.303 64.9531 287.403 65.4844 293.28 65.4844C296.136 65.4844 298.045 65.1689 299.008 64.5381C300.004 63.9072 300.502 63.0273 300.502 61.8984C300.502 60.8027 300.22 59.9395 299.655 59.3086C299.124 58.6445 298.128 58.3125 296.667 58.3125H291.288C286.706 58.3125 282.556 57.5654 278.837 56.0713C275.151 54.5771 272.113 52.5186 269.723 49.8955C267.365 47.2725 265.556 44.2344 264.294 40.7812C263.032 37.3281 262.401 33.6094 262.401 29.625C262.401 26.4375 262.85 23.416 263.746 20.5605C264.643 17.7051 265.987 15.082 267.78 12.6914C269.606 10.3008 271.781 8.24219 274.305 6.51562C276.861 4.75586 279.883 3.39453 283.369 2.43164C286.889 1.43555 290.69 0.9375 294.774 0.9375C301.183 0.9375 307.176 1.91699 312.754 3.87598C318.332 5.80176 322.98 8.50781 326.699 11.9941L323.81 14.1357C320.424 11.0811 316.19 8.72363 311.11 7.06348C306.03 5.37012 300.585 4.52344 294.774 4.52344C290.226 4.52344 286.108 5.1875 282.423 6.51562C278.77 7.81055 275.749 9.60352 273.358 11.8945C271.001 14.1855 269.175 16.8418 267.88 19.8633C266.618 22.8848 265.987 26.1387 265.987 29.625C265.987 34.3066 266.934 38.5234 268.826 42.2754C270.719 46.0273 273.607 49.0488 277.492 51.3398C281.377 53.5977 285.976 54.7266 291.288 54.7266Z" fill="white"></path>
                        </svg>