<svg width="307" height="89" viewBox="0 0 307 89" fill="none" xmlns="http://www.w3.org/2000/svg">
                            <path class="letter" d="M65.0186 56.5586L68.8857 49.2539V89H65.0186V56.5586ZM72.7529 41.7344L76.6201 34.4297V89H72.7529V41.7344ZM80.4873 27.125L84.3545 19.7666V89H80.4873V27.125ZM54.5449 54.7324L52.3428 50.7041L78.9834 0.0546875H83.334L54.5449 54.7324ZM50.0869 46.2998L47.8311 42.2178L70.1748 0.0546875H74.5791L50.0869 46.2998ZM24.1982 49.6836L28.0654 56.9883V89H24.1982V49.6836ZM16.4639 34.9668L20.3311 42.2715V89H16.4639V34.9668ZM8.72949 20.25L12.5967 27.6084V89H8.72949V20.25ZM39.9893 65.7969H35.6387L4.8623 7.41309V89H0.995117V0.0546875H5.3457L39.9893 65.7969ZM48.7441 65.7969H44.3398L9.75 0.0546875H14.1543L48.7441 65.7969ZM88.2217 7.41309L57.4453 65.7969H53.041L18.5049 0.0546875H22.8555L55.2969 61.7148L87.6846 0.0546875H92.0889V89H88.2217V7.41309ZM141.43 89H137.563V0.0546875H141.43V89ZM133.696 89H129.828V0.0546875H133.696V89ZM125.961 89H122.094V0.0546875H125.961V89ZM149.164 69.6641H190.307V73.5312H149.164V77.3984H190.307V81.2656H149.164V85.1328H190.307V89H145.297V0.0546875H190.307V3.92188H149.164V7.78906H190.307V11.6562H149.164V15.5234H190.307V19.3906H149.164V34.8594H170.273V38.7266H149.164V42.5938H170.273V46.4609H149.164V50.3281H170.273V54.1953H149.164V69.6641ZM282.831 46.1924L278.964 39.8008V0.0546875H282.831V46.1924ZM290.566 58.8682L286.699 52.3691V0.0546875H290.566V58.8682ZM298.3 71.7051L294.433 65.1523V0.0546875H298.3V71.7051ZM242.871 42.8623L246.738 49.2539V89H242.871V42.8623ZM235.136 30.1865L239.003 36.6855V89H235.136V30.1865ZM227.402 17.3496L231.269 23.9023V89H227.402V17.3496ZM228.745 0.0546875H233.256L287.934 89H283.422L228.745 0.0546875ZM237.875 0.0546875H242.441L297.065 89H292.446L237.875 0.0546875ZM246.953 0.0546875H251.464L302.167 82.7158V0.0546875H306.035V89C306.035 89 304.513 89 301.469 89L246.953 0.0546875ZM223.535 6.33887V89H219.667V0.0546875C219.667 0.0546875 221.207 0.0546875 224.287 0.0546875L278.803 89H274.345L223.535 6.33887Z" fill="#FFF"></path>
                        </svg>